<mxfile host="app.diagrams.net" modified="2023-10-17T13:56:32.709Z" agent="Mozilla/5.0 (Windows NT 10.0; Win64; x64) AppleWebKit/537.36 (KHTML, like Gecko) Chrome/116.0.5845.967 YaBrowser/23.9.1.967 Yowser/2.5 Safari/537.36" etag="fFpOUeb3u8PWpfY3TtTN" version="22.0.4" type="device">
  <diagram name="Страница — 1" id="fVZoOvZGcOOop_3nw-I1">
    <mxGraphModel dx="1806" dy="571" grid="1" gridSize="10" guides="1" tooltips="1" connect="1" arrows="1" fold="1" page="1" pageScale="1" pageWidth="827" pageHeight="1169" math="0" shadow="0">
      <root>
        <mxCell id="0" />
        <mxCell id="1" parent="0" />
        <mxCell id="LNmez7-fYW9ojE5H0VSU-2" value="" style="swimlane;whiteSpace=wrap;html=1;rotation=-180;" parent="1" vertex="1">
          <mxGeometry x="210" y="100" width="437.5" height="200" as="geometry">
            <mxRectangle x="460" y="310" width="50" height="40" as="alternateBounds" />
          </mxGeometry>
        </mxCell>
        <mxCell id="LNmez7-fYW9ojE5H0VSU-3" value="Организация и проведение спортивных мероприятий, &lt;br style=&quot;font-size: 14px;&quot;&gt;продвижение спортивных игр в общество" style="text;html=1;align=center;verticalAlign=middle;resizable=0;points=[];autosize=1;strokeColor=none;fillColor=none;fontSize=14;fontStyle=1" parent="LNmez7-fYW9ojE5H0VSU-2" vertex="1">
          <mxGeometry x="13.75" y="55" width="410" height="50" as="geometry" />
        </mxCell>
        <mxCell id="LNmez7-fYW9ojE5H0VSU-13" style="rounded=0;orthogonalLoop=1;jettySize=auto;html=1;dashed=1;" parent="1" source="LNmez7-fYW9ojE5H0VSU-4" edge="1">
          <mxGeometry relative="1" as="geometry">
            <mxPoint x="310" y="289.9999999999999" as="targetPoint" />
          </mxGeometry>
        </mxCell>
        <mxCell id="LNmez7-fYW9ojE5H0VSU-4" value="" style="swimlane;whiteSpace=wrap;html=1;rotation=-180;" parent="1" vertex="1">
          <mxGeometry x="90" y="310" width="320" height="140" as="geometry">
            <mxRectangle x="460" y="310" width="50" height="40" as="alternateBounds" />
          </mxGeometry>
        </mxCell>
        <mxCell id="LNmez7-fYW9ojE5H0VSU-5" value="Обеспечение спортсменов инвентарём&lt;br&gt;&amp;nbsp;для тренировок, &lt;br&gt;и опытным тренерским составом" style="text;html=1;align=center;verticalAlign=middle;resizable=0;points=[];autosize=1;strokeColor=none;fillColor=none;fontSize=14;fontStyle=1" parent="LNmez7-fYW9ojE5H0VSU-4" vertex="1">
          <mxGeometry x="10" y="40" width="310" height="60" as="geometry" />
        </mxCell>
        <mxCell id="LNmez7-fYW9ojE5H0VSU-42" value="" style="ellipse;whiteSpace=wrap;html=1;aspect=fixed;" parent="LNmez7-fYW9ojE5H0VSU-4" vertex="1">
          <mxGeometry x="280" width="40" height="40" as="geometry" />
        </mxCell>
        <mxCell id="LNmez7-fYW9ojE5H0VSU-41" value="" style="group" parent="LNmez7-fYW9ojE5H0VSU-4" vertex="1" connectable="0">
          <mxGeometry x="280" width="40" height="40" as="geometry" />
        </mxCell>
        <mxCell id="LNmez7-fYW9ojE5H0VSU-43" value="" style="ellipse;whiteSpace=wrap;html=1;aspect=fixed;fillColor=#f8cecc;strokeColor=#b85450;" parent="LNmez7-fYW9ojE5H0VSU-41" vertex="1">
          <mxGeometry x="10" y="10" width="20" height="20" as="geometry" />
        </mxCell>
        <mxCell id="LNmez7-fYW9ojE5H0VSU-12" style="rounded=0;orthogonalLoop=1;jettySize=auto;html=1;entryX=1;entryY=0.25;entryDx=0;entryDy=0;dashed=1;" parent="1" source="LNmez7-fYW9ojE5H0VSU-6" target="LNmez7-fYW9ojE5H0VSU-2" edge="1">
          <mxGeometry relative="1" as="geometry" />
        </mxCell>
        <mxCell id="LNmez7-fYW9ojE5H0VSU-6" value="" style="swimlane;whiteSpace=wrap;html=1;rotation=-180;" parent="1" vertex="1">
          <mxGeometry x="-20" y="160" width="202.5" height="140" as="geometry">
            <mxRectangle x="460" y="310" width="50" height="40" as="alternateBounds" />
          </mxGeometry>
        </mxCell>
        <mxCell id="LNmez7-fYW9ojE5H0VSU-7" value="Ведение бухгалтерского и&lt;br style=&quot;font-size: 14px;&quot;&gt;инвентарного учёта и&lt;br style=&quot;font-size: 14px;&quot;&gt;финансирования клуба" style="text;html=1;align=center;verticalAlign=middle;resizable=0;points=[];autosize=1;strokeColor=none;fillColor=none;fontSize=14;fontStyle=1" parent="LNmez7-fYW9ojE5H0VSU-6" vertex="1">
          <mxGeometry x="-3.75" y="40" width="210" height="60" as="geometry" />
        </mxCell>
        <mxCell id="LNmez7-fYW9ojE5H0VSU-44" value="" style="group" parent="LNmez7-fYW9ojE5H0VSU-6" vertex="1" connectable="0">
          <mxGeometry x="156.5" width="40" height="40" as="geometry" />
        </mxCell>
        <mxCell id="LNmez7-fYW9ojE5H0VSU-45" value="" style="ellipse;whiteSpace=wrap;html=1;aspect=fixed;" parent="LNmez7-fYW9ojE5H0VSU-44" vertex="1">
          <mxGeometry width="40" height="40" as="geometry" />
        </mxCell>
        <mxCell id="LNmez7-fYW9ojE5H0VSU-46" value="" style="ellipse;whiteSpace=wrap;html=1;aspect=fixed;fillColor=#f8cecc;strokeColor=#b85450;" parent="LNmez7-fYW9ojE5H0VSU-44" vertex="1">
          <mxGeometry x="10" y="10" width="20" height="20" as="geometry" />
        </mxCell>
        <mxCell id="LNmez7-fYW9ojE5H0VSU-14" style="rounded=0;orthogonalLoop=1;jettySize=auto;html=1;dashed=1;" parent="1" source="LNmez7-fYW9ojE5H0VSU-8" edge="1">
          <mxGeometry relative="1" as="geometry">
            <mxPoint x="570" y="289.9999999999999" as="targetPoint" />
          </mxGeometry>
        </mxCell>
        <mxCell id="LNmez7-fYW9ojE5H0VSU-8" value="" style="swimlane;whiteSpace=wrap;html=1;rotation=-180;" parent="1" vertex="1">
          <mxGeometry x="420" y="310" width="280" height="140" as="geometry">
            <mxRectangle x="460" y="310" width="50" height="40" as="alternateBounds" />
          </mxGeometry>
        </mxCell>
        <mxCell id="LNmez7-fYW9ojE5H0VSU-9" value="Информационное обеспечение &lt;br&gt;о результатах &lt;br&gt;и прогрессе спортсменов" style="text;html=1;align=center;verticalAlign=middle;resizable=0;points=[];autosize=1;strokeColor=none;fillColor=none;fontSize=14;fontStyle=1" parent="LNmez7-fYW9ojE5H0VSU-8" vertex="1">
          <mxGeometry x="17.5" y="40" width="250" height="60" as="geometry" />
        </mxCell>
        <mxCell id="LNmez7-fYW9ojE5H0VSU-38" value="" style="group" parent="LNmez7-fYW9ojE5H0VSU-8" vertex="1" connectable="0">
          <mxGeometry x="240.5" width="40" height="40" as="geometry" />
        </mxCell>
        <mxCell id="LNmez7-fYW9ojE5H0VSU-39" value="" style="ellipse;whiteSpace=wrap;html=1;aspect=fixed;" parent="LNmez7-fYW9ojE5H0VSU-38" vertex="1">
          <mxGeometry width="40" height="40" as="geometry" />
        </mxCell>
        <mxCell id="LNmez7-fYW9ojE5H0VSU-40" value="" style="ellipse;whiteSpace=wrap;html=1;aspect=fixed;fillColor=#f8cecc;strokeColor=#b85450;" parent="LNmez7-fYW9ojE5H0VSU-38" vertex="1">
          <mxGeometry x="10" y="10" width="20" height="20" as="geometry" />
        </mxCell>
        <mxCell id="LNmez7-fYW9ojE5H0VSU-15" style="rounded=0;orthogonalLoop=1;jettySize=auto;html=1;entryX=0;entryY=0.5;entryDx=0;entryDy=0;dashed=1;" parent="1" source="LNmez7-fYW9ojE5H0VSU-10" target="LNmez7-fYW9ojE5H0VSU-2" edge="1">
          <mxGeometry relative="1" as="geometry" />
        </mxCell>
        <mxCell id="LNmez7-fYW9ojE5H0VSU-10" value="" style="swimlane;whiteSpace=wrap;html=1;rotation=-180;" parent="1" vertex="1">
          <mxGeometry x="670" y="160" width="252.5" height="140" as="geometry">
            <mxRectangle x="460" y="310" width="50" height="40" as="alternateBounds" />
          </mxGeometry>
        </mxCell>
        <mxCell id="LNmez7-fYW9ojE5H0VSU-11" value="Обеспечение благоприятных&lt;br&gt;&amp;nbsp;и безопасных условиях &lt;br&gt;тренировок" style="text;html=1;align=center;verticalAlign=middle;resizable=0;points=[];autosize=1;strokeColor=none;fillColor=none;fontSize=14;fontStyle=1" parent="LNmez7-fYW9ojE5H0VSU-10" vertex="1">
          <mxGeometry x="11.25" y="40" width="230" height="60" as="geometry" />
        </mxCell>
        <mxCell id="s38jwOC4xTa3iO7R-eOJ-2" value="" style="ellipse;whiteSpace=wrap;html=1;aspect=fixed;" parent="LNmez7-fYW9ojE5H0VSU-10" vertex="1">
          <mxGeometry x="213.5" width="40" height="40" as="geometry" />
        </mxCell>
        <mxCell id="s38jwOC4xTa3iO7R-eOJ-1" value="" style="group" parent="LNmez7-fYW9ojE5H0VSU-10" vertex="1" connectable="0">
          <mxGeometry x="214" width="40" height="40" as="geometry" />
        </mxCell>
        <mxCell id="s38jwOC4xTa3iO7R-eOJ-3" value="" style="ellipse;whiteSpace=wrap;html=1;aspect=fixed;fillColor=#f8cecc;strokeColor=#b85450;" parent="s38jwOC4xTa3iO7R-eOJ-1" vertex="1">
          <mxGeometry x="10" y="10" width="20" height="20" as="geometry" />
        </mxCell>
      </root>
    </mxGraphModel>
  </diagram>
</mxfile>
